<mxfile host="app.diagrams.net" modified="2023-05-23T01:45:28.376Z" agent="Mozilla/5.0 (Windows NT 10.0; Win64; x64) AppleWebKit/537.36 (KHTML, like Gecko) Chrome/113.0.0.0 Safari/537.36" etag="t3iUjkB9p35TnOXe9OWw" version="21.3.2" type="device">
  <diagram name="Page-1" id="CF3NcFbjFX5n9M0AwmO6">
    <mxGraphModel dx="1290" dy="579" grid="1" gridSize="10" guides="1" tooltips="1" connect="1" arrows="1" fold="1" page="1" pageScale="1" pageWidth="850" pageHeight="1100" math="0" shadow="0">
      <root>
        <mxCell id="0" />
        <mxCell id="1" parent="0" />
        <mxCell id="Tv2_qlNn0Nj4-BIQulb8-1" value="&lt;b&gt;q0&lt;/b&gt;" style="ellipse;whiteSpace=wrap;html=1;aspect=fixed;" vertex="1" parent="1">
          <mxGeometry x="180" y="220" width="60" height="60" as="geometry" />
        </mxCell>
        <mxCell id="Tv2_qlNn0Nj4-BIQulb8-2" value="&lt;b&gt;q1&lt;/b&gt;" style="ellipse;whiteSpace=wrap;html=1;aspect=fixed;" vertex="1" parent="1">
          <mxGeometry x="365" y="220" width="60" height="60" as="geometry" />
        </mxCell>
        <mxCell id="Tv2_qlNn0Nj4-BIQulb8-6" value="" style="group" vertex="1" connectable="0" parent="1">
          <mxGeometry x="550" y="210" width="80" height="80" as="geometry" />
        </mxCell>
        <mxCell id="Tv2_qlNn0Nj4-BIQulb8-4" value="" style="ellipse;whiteSpace=wrap;html=1;aspect=fixed;" vertex="1" parent="Tv2_qlNn0Nj4-BIQulb8-6">
          <mxGeometry width="80" height="80" as="geometry" />
        </mxCell>
        <mxCell id="Tv2_qlNn0Nj4-BIQulb8-5" value="&lt;b&gt;q2&lt;/b&gt;" style="ellipse;whiteSpace=wrap;html=1;aspect=fixed;" vertex="1" parent="Tv2_qlNn0Nj4-BIQulb8-6">
          <mxGeometry x="10" y="10" width="60" height="60" as="geometry" />
        </mxCell>
        <mxCell id="Tv2_qlNn0Nj4-BIQulb8-7" value="" style="endArrow=classic;html=1;rounded=0;exitX=1;exitY=0.5;exitDx=0;exitDy=0;entryX=0;entryY=0.5;entryDx=0;entryDy=0;" edge="1" parent="1" source="Tv2_qlNn0Nj4-BIQulb8-1" target="Tv2_qlNn0Nj4-BIQulb8-2">
          <mxGeometry width="50" height="50" relative="1" as="geometry">
            <mxPoint x="400" y="330" as="sourcePoint" />
            <mxPoint x="450" y="280" as="targetPoint" />
          </mxGeometry>
        </mxCell>
        <mxCell id="Tv2_qlNn0Nj4-BIQulb8-8" value="" style="endArrow=classic;html=1;rounded=0;exitX=1;exitY=0.5;exitDx=0;exitDy=0;entryX=0;entryY=0.5;entryDx=0;entryDy=0;" edge="1" parent="1">
          <mxGeometry width="50" height="50" relative="1" as="geometry">
            <mxPoint x="425" y="249.5" as="sourcePoint" />
            <mxPoint x="550" y="249.5" as="targetPoint" />
          </mxGeometry>
        </mxCell>
      </root>
    </mxGraphModel>
  </diagram>
</mxfile>
